<svg _ngcontent-msb-c26="" xmlns="http://www.w3.org/2000/svg" viewBox="0 0 560.70001 267.20001"><defs _ngcontent-msb-c26=""><style _ngcontent-msb-c26="">.text{fill:#fff;}.marker{fill:#000;}.text-extra{fill:#000;}</style></defs><title _ngcontent-msb-c26="">Museumssonntag – Free entry!</title><path _ngcontent-msb-c26="" d="M-53.9,261.4c23.9,1,48.5-.6,72.2.7,20.8,1.1,42.3,2.2,63.6,3.2,103.4,4.7,130.2,3.6,204.2,6.3,2.8.1,57.9,4.9,63.8,5.9,14.1,2.4,91.5,5.7,112.8,4.2,4.8-.3,25-2.9,29.5-2.9,4.4,0,31.7-1.6,36.1-1.6l-4.3-112.5-2.1-17.9c44.3,3.2,75,1.1,121.4.7l5-159.7c-59.7-3.3-205-7.5-255.4-11.2-40.8-3-100.2,5.6-143.1,4.6,0,0-74.4-2.6-239.2,4.6-20.6,1-53.3-1-56.2-.7l3.9,111.4,1.6,23.5-19.4,1.7-.7,20.3,3.2,65.9.9,53.5h2.2" class="marker"></path><path _ngcontent-msb-c26="" d="M462.5,195.3a36.34846,36.34846,0,0,1-2.8,14.9c-3.4,7.5-9.2,11.3-17.5,11.3a15.23137,15.23137,0,0,1-12.7-6.1c-3.1-4.1-4.7-10-4.7-17.8,0-6.6.8-12,2.4-16.1,3-7.7,8.6-11.5,16.7-11.5a16.92811,16.92811,0,0,1,13.4,6.2c3.4,4.2,5.2,10.5,5.2,19.1m-20.9-35.5c-8,0-14.8,3.2-20.4,9.7s-8.5,15.5-8.5,27.1c0,12.3,2.8,21,8.4,26.4a27.6105,27.6105,0,0,0,19.6,8c5.4,0,9.7-.9,12.9-2.6a22.4921,22.4921,0,0,0,8.4-7.9c.1,9.5-.6,16.1-2.2,19.8-2.7,6.3-8.5,9.4-17.4,9.4q-8.4,0-12.3-3.9a12.73985,12.73985,0,0,1-3.3-7.2h-11.8c.6,7.1,3.4,12.3,8.5,15.6s11.3,5,18.7,5c13.3,0,22.4-4.7,27.2-14.1,2.6-5.1,3.9-12,3.9-20.8V161.4h-10.7v8.7a31.75032,31.75032,0,0,0-6.7-6.6A27.92146,27.92146,0,0,0,441.6,159.8m-80.1,30.8c-6.5.8-11.7,3-15.7,6.5s-6,8.5-6,14.9a19.32762,19.32762,0,0,0,6.1,14.6c4.1,3.9,9.3,5.8,15.7,5.8a31.0959,31.0959,0,0,0,14.6-3.4,30.47549,30.47549,0,0,0,10.2-8.1,17.23451,17.23451,0,0,0,2,6.4c1.8,2.8,4.7,4.3,8.7,4.3a38.44475,38.44475,0,0,0,3.9-.2,32.88843,32.88843,0,0,0,4.1-1v-8.6l-2.1.3a10.28315,10.28315,0,0,1-1.7.1c-1.6,0-2.6-.4-3.1-1.1a4.98968,4.98968,0,0,1-.7-2.9V178.4c0-6.5-2.5-11.4-7.5-14.5-5.1-3.1-11.7-4.6-19.8-4.6a34.38079,34.38079,0,0,0-18.5,5c-5.3,3.3-8.1,9.3-8.3,17.8h10.8A16.03361,16.03361,0,0,1,357,174c2.5-3.3,6.8-4.9,12.9-4.9,5.2,0,9.3.9,12.1,2.7s4.2,4.7,4.2,8.6a10.98892,10.98892,0,0,1-.8,4.5c-.9,1.9-2.7,3-5.4,3.4Zm-9.7,21.1a10.43156,10.43156,0,0,1,5.4-9.7,26.02318,26.02318,0,0,1,9.5-2.6l7-.9a58.9912,58.9912,0,0,0,6.6-1.3,20.22315,20.22315,0,0,0,5.5-2.3v9.3c0,7.1-3.2,12.3-9.7,15.4a26.32825,26.32825,0,0,1-11.9,2.8,13.61854,13.61854,0,0,1-8.7-2.9,9.22944,9.22944,0,0,1-3.7-7.8M306.3,161h-9.4v9.5h9.4v45.8a18.86031,18.86031,0,0,0,2.9,10.8c1.9,2.8,5.6,4.2,11,4.2a34.82848,34.82848,0,0,0,4.7-.3c1.4-.2,2.8-.5,4.2-.8V221a21.50293,21.50293,0,0,1-2.3.2H325a9.98507,9.98507,0,0,1-4.5-.7c-1.6-.8-2.5-2.4-2.5-4.8V170.6h11V161H318V141.7H306.3V161Zm-75.8,69.1h11.6V193.9a45.78838,45.78838,0,0,1,.9-10.4,17.06182,17.06182,0,0,1,3.8-7.1,18.07068,18.07068,0,0,1,8.4-5.7,21.83721,21.83721,0,0,1,6.8-.8c5.4,0,9.2,2.2,11.2,6.5a24.41371,24.41371,0,0,1,1.9,10.2v43.6h11.8V185.9c0-7-.9-12.3-2.8-16.1-3.4-6.8-10.1-10.3-19.9-10.3a28.67606,28.67606,0,0,0-12.2,2.6,31.77222,31.77222,0,0,0-10.4,8.7V161h-11v69.1Zm-71.6,0h11.6V193.9a45.78954,45.78954,0,0,1,.9-10.4,17.06188,17.06188,0,0,1,3.8-7.1,18.07058,18.07058,0,0,1,8.4-5.7,21.83728,21.83728,0,0,1,6.8-.8c5.4,0,9.2,2.2,11.2,6.5a24.41372,24.41372,0,0,1,1.9,10.2v43.6h11.8V185.9c0-7-.9-12.3-2.8-16.1-3.4-6.8-10.1-10.3-19.9-10.3a28.676,28.676,0,0,0-12.2,2.6,31.77232,31.77232,0,0,0-10.4,8.7V161H159v69.1ZM114.8,159c-9.9,0-17.7,3.4-23.6,10.3s-8.8,16.1-8.8,27.7c0,10.8,2.8,19.5,8.3,25.9q8.4,9.6,22.5,9.6c11.3,0,19.7-3.6,25.1-10.9s8.1-16.5,8.1-27.6c0-11.5-3.1-20.2-9.2-26.2a31.42774,31.42774,0,0,0-22.4-8.8m-.4,63.6c-6.9,0-12-2.4-15.2-7.3s-4.8-11-4.8-18.4c0-7.6,1.6-14.2,4.8-19.6s8.3-8.1,15.3-8.1c7.9,0,13.5,3.2,16.7,9.5,2,4,3.1,9.3,3.1,15.7a44.14483,44.14483,0,0,1-4.2,19.4c-2.9,5.9-8.1,8.8-15.7,8.8M-1.8,199.5q-.15,15.3,9.6,24.3t27,9a49.40873,49.40873,0,0,0,26-6.8c7.4-4.5,11.2-12,11.2-22.5,0-8.4-2.9-14.9-8.8-19.3q-5.1-3.75-14.4-6l-12.9-3c-8.7-2.1-14.2-3.8-16.7-5.2-3.8-2.2-5.6-5.6-5.6-10.2a15.24061,15.24061,0,0,1,4.8-11.1c3.2-3.2,8.4-4.8,15.7-4.8,9,0,15.4,2.5,19.1,7.4,2,2.7,3.3,6.6,4,11.7H69.3c0-10.5-3.4-18.2-10.1-23q-10.2-7.2-24.6-7.2c-10.5,0-18.6,2.7-24.4,8.2-5.7,5.5-8.6,12.5-8.6,21,0,7.9,2.9,13.8,8.8,17.7,3.4,2.3,9.1,4.4,17.3,6.3l12.4,2.9c6.8,1.6,11.7,3.5,14.9,5.6,3.1,2.2,4.7,5.9,4.7,11,0,6.9-3.7,11.7-11.1,14.3a36.37978,36.37978,0,0,1-12.7,2.1c-10.4,0-17.6-3.1-21.7-9.4-2.2-3.4-3.4-7.7-3.7-13.1H-1.8Z" class="text"></path><path _ngcontent-msb-c26="" d="M496.8,86.9c.3,6.9,2.6,12.7,7,17.3,4.3,4.7,11.7,7,22.1,7,9.7,0,16.9-2.2,21.6-6.7a21.3636,21.3636,0,0,0,7.1-15.9c0-6.4-2.3-11-6.8-14-2.9-1.9-8.6-3.8-17.1-5.9l-7.8-1.9a31.02007,31.02007,0,0,1-7.8-2.8c-3-1.8-4.6-4.2-4.6-7.2a7.90631,7.90631,0,0,1,3.5-6.6c2.3-1.7,5.7-2.5,10.2-2.5,6.7,0,11.5,1.5,14.2,4.6a12.59313,12.59313,0,0,1,2.8,7.1h11a19.20492,19.20492,0,0,0-4.3-12.5c-4.7-6.1-12.3-9.2-22.8-9.2-8.1,0-14.5,2-19.3,6.1a19.66613,19.66613,0,0,0-7.2,15.9c0,5.6,2.5,9.9,7.6,13,2.8,1.8,7.3,3.4,13.2,4.9l9.4,2.3c5,1.2,8.4,2.3,10.1,3.3a7.29766,7.29766,0,0,1,4,6.8,9.4233,9.4233,0,0,1-5,8.7,22.90994,22.90994,0,0,1-11.6,2.8c-7.4,0-12.6-1.9-15.5-5.6-1.6-2.1-2.6-5-3-8.9H496.8ZM391.6,108.6h11.6V71.9c0-8.9,1.8-15.1,5.4-18.5a17.09172,17.09172,0,0,1,12-5.1q7.2,0,9.9,4.8c1.1,2.2,1.7,5.6,1.7,10.3v45.1H444V68.4c0-7.1,1.6-12.2,4.9-15.3a16.54024,16.54024,0,0,1,11.8-4.6,13.76711,13.76711,0,0,1,8.4,2.6c2.3,1.7,3.5,4.9,3.5,9.5v48h12.1v-46c0-6.1-.9-11-2.7-14.6-3.4-6.7-9.7-10.1-19-10.1a24.91325,24.91325,0,0,0-11.7,2.7,25.17988,25.17988,0,0,0-9.1,8.2A19.97264,19.97264,0,0,0,437,42c-3.4-2.7-7.8-4.1-13.3-4.1a22.39973,22.39973,0,0,0-13,3.9,39.297,39.297,0,0,0-7.5,7.4V39.4H391.7v69.2ZM320.7,39.5v47c0,5.9.9,10.6,2.8,14.1q5.25,9.9,19.8,9.9a23.512,23.512,0,0,0,21.3-12l-.1,10.2h11V39.5H363.9V73.4c0,6.8-.8,12.1-2.3,15.9-2.9,7.2-8.2,10.8-16.1,10.8-5.5,0-9.2-2.1-11.3-6.2a19.42134,19.42134,0,0,1-1.6-8.6V39.5Zm-63.8,29a21.99575,21.99575,0,0,1,5.7-14.7A17.6387,17.6387,0,0,1,275.9,48c7.4,0,12.6,2.8,15.8,8.4,1.7,3,2.8,7,3.3,12.1Zm19.8-30.6c-9.7,0-17.5,3.5-23.5,10.4s-9,15.9-9,27c0,11.3,3,20,8.9,26.3a28.63365,28.63365,0,0,0,21.7,9.4,38.72859,38.72859,0,0,0,9.4-1,26.188,26.188,0,0,0,13-7,30.80362,30.80362,0,0,0,5.7-7.6,23.549,23.549,0,0,0,3-8.5H294.5a19.80145,19.80145,0,0,1-4.3,8.1q-5.4,6-14.4,6c-6.4,0-11.2-2.1-14.3-6.4-3.1-4.2-4.7-9.9-4.9-16.9h50.3c0-7-.3-12-1-15.2a31.93821,31.93821,0,0,0-4.6-12.2,25.78164,25.78164,0,0,0-10.5-8.9,30.95528,30.95528,0,0,0-14.1-3.5m-100.2,49c.3,6.9,2.6,12.7,7,17.3,4.3,4.7,11.7,7,22.1,7,9.7,0,16.9-2.2,21.6-6.7a21.36364,21.36364,0,0,0,7.1-15.9c0-6.4-2.3-11-6.8-14-2.9-1.9-8.6-3.8-17.1-5.9l-7.8-1.9a31.0211,31.0211,0,0,1-7.8-2.8c-3-1.8-4.6-4.2-4.6-7.2a7.90626,7.90626,0,0,1,3.5-6.6c2.3-1.7,5.7-2.5,10.2-2.5,6.7,0,11.5,1.5,14.2,4.6a12.593,12.593,0,0,1,2.8,7.1h11a19.20475,19.20475,0,0,0-4.3-12.5c-4.7-6.1-12.3-9.2-22.8-9.2-8.1,0-14.5,2-19.3,6.1a19.66607,19.66607,0,0,0-7.2,15.9c0,5.6,2.5,9.9,7.6,13,2.8,1.8,7.3,3.4,13.2,4.9l9.4,2.3c5,1.2,8.4,2.3,10.1,3.3a7.29767,7.29767,0,0,1,4,6.8,9.42332,9.42332,0,0,1-5,8.7,22.91,22.91,0,0,1-11.6,2.8c-7.4,0-12.6-1.9-15.5-5.6-1.6-2.1-2.6-5-3-8.9H176.5ZM109.1,39.5v47c0,5.9.9,10.6,2.8,14.1q5.25,9.9,19.8,9.9a23.512,23.512,0,0,0,21.3-12l-.1,10.2h11V39.5H152.3V73.4c0,6.8-.8,12.1-2.3,15.9-2.9,7.2-8.2,10.8-16.1,10.8-5.5,0-9.2-2.1-11.2-6.2a19.42119,19.42119,0,0,1-1.6-8.6V39.5ZM1.5,108.6H13.8v-56c0-2.2-.1-5.7-.2-10.5s-.2-8.3-.2-10.6V28.6l27.3,80H53.4l27.1-80c0,5.1,0,9.9-.1,14.4s-.1,7.7-.1,9.6v56H92.6V13.8H74.3L47.2,94,19.9,13.8H1.5Z" class="text"></path><g _ngcontent-msb-c26="" class="text-extra"><!----><path _ngcontent-msb-c26="" d="M125.463,316.569l.212,11.743-53.5.959.523,29.1,47.037-.844.2,11.418-47.039.843.782,43.579L60.7,413.6,58.985,317.76Zm6.5,95.161,11.738.411,1.407-40.17A19.929,19.929,0,0,1,150.325,359q4.959-5.538,13.829-5.228c.694.024,1.336.069,1.921.132a17.994,17.994,0,0,1,1.915.328l.434-12.389q-1.887-.263-2.665-.354c-.519-.062-.89-.1-1.107-.105a17.43,17.43,0,0,0-12.5,4.622q-5.526,4.868-7.018,8.34l.423-12.064-11.151-.39Zm90.25-35.415q-.173-7.666-2.43-12.4-4.177-8.8-15.342-9.59A17.652,17.652,0,0,0,190.6,359.2a22.159,22.159,0,0,0-6.792,14.4l38.4,2.72m11.434-5.273q.693,4.89-.052,15.433l-50.7-3.591q-.429,10.66,3.765,17.42t13.945,7.448q9.106.647,14.961-5.05a20.776,20.776,0,0,0,4.881-7.869l11.521.816a24.329,24.329,0,0,1-3.633,8.344,30.872,30.872,0,0,1-6.283,7.307,27.093,27.093,0,0,1-13.61,6.1,39.657,39.657,0,0,1-9.57.369,29.161,29.161,0,0,1-21.256-11.023q-8.319-10.107-7.111-27.16,1.188-16.793,10.988-26.63t24.418-8.8a31.541,31.541,0,0,1,14.048,4.5,26.473,26.473,0,0,1,9.905,9.761,31.287,31.287,0,0,1,3.787,12.632m62.231,11.891q.015-7.668-2.129-12.459-3.963-8.9-15.106-9.96a17.653,17.653,0,0,0-13.95,4.539,22.165,22.165,0,0,0-7.139,14.233l38.324,3.647m11.559-5q.575,4.907-.426,15.429l-50.6-4.817q-.689,10.649,3.342,17.507t13.76,7.783q9.089.864,15.079-4.689a20.754,20.754,0,0,0,5.07-7.748l11.5,1.094a24.339,24.339,0,0,1-3.833,8.255,30.9,30.9,0,0,1-6.457,7.152,27.1,27.1,0,0,1-13.754,5.77,39.623,39.623,0,0,1-9.576.137,29.152,29.152,0,0,1-20.983-11.534q-8.074-10.305-6.454-27.323,1.595-16.76,11.629-26.357t24.623-8.208a31.509,31.509,0,0,1,13.936,4.833,26.483,26.483,0,0,1,9.668,10,31.338,31.338,0,0,1,3.479,12.719m48.3,54.781,70.535-.015,0-11.419-57.876.013-.007-32.5,52.591-.011,0-11.093-52.591.012-.006-29.1,56.9-.011,0-11.745-69.557.015Zm86.36-3.155L453.737,428l-4.873-36.28a48.019,48.019,0,0,1-.53-10.561,17.3,17.3,0,0,1,2.831-7.59,17.631,17.631,0,0,1,7.643-6.82A23.146,23.146,0,0,1,465.485,365q8.148-1.095,12.121,4.955a23.84,23.84,0,0,1,3.248,9.965l5.864,43.652,11.835-1.589-5.968-44.428q-1.408-10.476-5.009-15.721-6.557-9.586-21.3-7.6a27.987,27.987,0,0,0-11.866,4.293,31.294,31.294,0,0,0-9.239,10.129l-1.321-9.83L432.792,360.3ZM507.651,349.9l-9.367,1.335,1.353,9.5L509,359.4l6.524,45.8q.948,6.654,4.449,10.406t11.639,2.593a40.151,40.151,0,0,0,4.647-.925,26.231,26.231,0,0,0,4.047-1.433l-1.316-9.238q-1.269.357-2.23.538c-.642.12-1.244.22-1.8.3a10.536,10.536,0,0,1-4.624-.066q-2.63-.877-3.145-4.5l-6.432-45.154,11.046-1.574-1.352-9.5-11.047,1.573-2.751-19.314L504.9,330.585Zm44.086,64.351,11.661-1.4-4.8-39.907a19.927,19.927,0,0,1,3.159-13.623q4.047-6.236,12.858-7.3,1.037-.125,1.918-.165a17.649,17.649,0,0,1,1.944.028L577,339.578q-1.9.032-2.687.06c-.523.021-.893.042-1.109.068A17.429,17.429,0,0,0,561.56,346.2q-4.708,5.661-5.648,9.321l-1.441-11.984-11.078,1.332Zm66.78-19.261-21.211-56.045-13.3.585,28.975,70.733q-.807,2.379-2.613,7.284t-2.107,5.437a9.933,9.933,0,0,1-2.456,2.749,8.45,8.45,0,0,1-4.735,1.284,17.393,17.393,0,0,1-2.418-.089,40.658,40.658,0,0,1-4.47-.849l.47,10.691a30.293,30.293,0,0,0,3.321.571,28.035,28.035,0,0,0,3.818.029q10.16-.447,14.071-6.493t12.894-33.2q3.8-11.535,9.4-29.817,7.485-24.312,9.667-31.137l-12.973.57Zm61.09-83.36-13.246.031.074,31.515,3.49,41.491,6.656-.014,3.1-41.508Zm-13.053,82.312.032,13.572,12.985-.031-.032-13.572Z" transform="translate(-61.9 -27.8)" class="ng-star-inserted"></path><!----></g></svg>
